<?xml version="1.0" encoding="utf-8"?>
<svg id="latte" xmlns="http://www.w3.org/2000/svg" xmlns:xlink="http://www.w3.org/1999/xlink" x="0px" y="0px"
	 width="290px" height="235px" viewBox="0 0 290 235">
<g>
	<g>
		<g>
			<path fill="#AF6F31" d="M65.454,196.136c4.573,4.264,9.528,7.975,15.147,10.836c0.513,0.262,1.146,0.385,1.724,0.386
				c16.804,0.022,33.608,0.008,50.413-0.02c0.617,0,1.317-0.085,1.837-0.41c10.455-6.546,19.267-15.011,26.347-24.309H53.564
				C57.004,187.023,60.948,191.936,65.454,196.136z"/>
			<g>
				<path fill="#E2B691" d="M166.692,173.673l4.149-8.485c5.957-13.459,8.783-27.482,9.356-42.032l-0.002-2.582
					c-0.914-0.816-2.121-1.388-3.649-1.709c-1.365-0.286-2.56-0.085-3.573,0.939c-0.703,0.711-1.422,1.407-2.162,2.08
					c-4.175,3.801-9.678,3.813-13.859,0.028c-0.698-0.632-1.332-1.333-2.026-1.968c-1.78-1.627-3.499-1.654-5.34-0.054
					c-0.843,0.733-1.591,1.573-2.427,2.316c-3.892,3.459-9.485,3.353-13.282-0.236c-0.771-0.727-1.499-1.502-2.306-2.186
					c-1.691-1.433-3.191-1.45-4.913-0.029c-0.905,0.748-1.702,1.624-2.571,2.418c-3.734,3.411-9.431,3.389-13.152-0.053
					c-0.778-0.719-1.508-1.489-2.291-2.203c-1.745-1.591-3.362-1.631-5.187-0.081c-0.985,0.837-1.853,1.813-2.844,2.641
					c-3.713,3.103-9.173,2.965-12.764-0.301c-0.74-0.673-1.414-1.417-2.145-2.1c-1.942-1.813-3.646-1.832-5.592-0.062
					c-0.696,0.633-1.336,1.329-2.037,1.956c-4.388,3.929-10.033,3.788-14.255-0.341c-3.952-3.864-4.596-3.859-8.565,0.063
					c-3.947,3.901-9.611,4.2-13.922,0.714c-0.73-0.591-1.391-1.268-2.08-1.908c-1.344-1.251-2.92-1.841-4.449-1.846
					c0.05,4.397,0.283,8.793,0.746,13.188c1.027,9.741,3.09,19.373,6.503,28.582c2.937,7.926,6.736,15.345,11.508,22.195h107.357
					L166.692,173.673z"/>
				<path fill-rule="evenodd" clip-rule="evenodd" fill="#F2E2D3" d="M180.195,119.705l-0.005-6.022
					c-0.01-0.13-0.019-0.248-0.028-0.361c-0.017-0.231-0.032-0.438-0.051-0.643c-0.275-2.943-0.371-6.21-0.679-9.15
					c-0.008-0.079-0.019-0.153-0.031-0.224c-0.141-0.292-0.289-0.582-0.442-0.871c-8.58-16.082-37.36-27.907-71.553-27.907
					c-34.317,0-63.186,11.91-71.65,28.082c-0.17,0.185-0.29,0.426-0.367,0.729c-0.045,0.18-0.082,0.373-0.099,0.598
					c-0.211,2.821-0.351,5.642-0.429,8.461c-0.058,2.087-0.079,4.173-0.055,6.259c1.529,0.005,3.105,0.595,4.449,1.846
					c0.689,0.641,1.35,1.317,2.08,1.908c4.311,3.486,9.975,3.188,13.922-0.714c3.969-3.923,4.614-3.928,8.565-0.063
					c4.222,4.129,9.867,4.27,14.255,0.341c0.701-0.627,1.34-1.323,2.037-1.956c1.945-1.771,3.65-1.751,5.592,0.062
					c0.731,0.683,1.405,1.427,2.145,2.1c3.591,3.266,9.051,3.403,12.764,0.301c0.991-0.828,1.859-1.804,2.844-2.641
					c1.825-1.55,3.442-1.51,5.187,0.081c0.783,0.714,1.513,1.484,2.291,2.203c3.722,3.441,9.418,3.464,13.152,0.053
					c0.869-0.794,1.666-1.67,2.571-2.418c1.721-1.421,3.221-1.403,4.913,0.029c0.807,0.684,1.535,1.459,2.306,2.186
					c3.797,3.589,9.39,3.695,13.282,0.236c0.835-0.743,1.584-1.583,2.427-2.316c1.841-1.601,3.56-1.573,5.34,0.054
					c0.695,0.635,1.329,1.336,2.026,1.968c4.181,3.785,9.684,3.772,13.859-0.028c0.739-0.673,1.459-1.369,2.162-2.08
					c1.013-1.024,2.208-1.226,3.573-0.939c1.389,0.292,2.511,0.794,3.39,1.494c0.088,0.07,0.176,0.141,0.259,0.215L180.195,119.705z
					"/>
			</g>
		</g>
		<g>
			<g>
				<circle fill="#AF6F31" cx="78.872" cy="143.112" r="5.839"/>
			</g>
			<g>
				<circle fill="#AF6F31" cx="135.703" cy="143.112" r="5.839"/>
			</g>
			<g>
				<ellipse fill="#AF6F31" cx="64.21" cy="156.671" rx="8.823" ry="3.438"/>
			</g>
			<g>
				<ellipse fill="#AF6F31" cx="149.847" cy="156.671" rx="8.823" ry="3.438"/>
			</g>
			<path fill="#AF6F31" d="M106.12,161.728c-6.008,0-10.896-4.888-10.896-10.895c0-1.217,0.986-2.202,2.202-2.202
				s2.202,0.985,2.202,2.202c0,3.579,2.912,6.49,6.491,6.49s6.491-2.911,6.491-6.49c0-1.217,0.986-2.202,2.202-2.202
				s2.202,0.985,2.202,2.202C117.016,156.84,112.128,161.728,106.12,161.728z"/>
		</g>
		<g>
			<path fill="#515E66" d="M196.752,104.158c-1.472,0-4.149,0.028-6.063,0.063c-0.139-1.352-0.274-2.381-0.416-3.455
				c-0.141-1.064-0.286-2.166-0.443-3.663c-0.22-2.099-1.338-3.075-3.518-3.075c-52.709-0.002-105.419-0.001-158.128-0.001
				c-2.169,0-3.35,1.079-3.51,3.209c-0.851,11.374-0.753,21.762,0.3,31.757c1.233,11.702,3.66,22.32,7.418,32.461
				c5.969,16.105,14.971,29.843,26.756,40.828c5.807,5.414,11.498,9.507,17.397,12.511c0.752,0.383,1.664,0.603,2.502,0.604
				c9.455,0.013,18.591,0.019,27.527,0.019c10.018,0,19.784-0.008,29.449-0.023c0.928-0.001,1.946-0.293,2.723-0.78
				c14.85-9.297,26.792-21.443,35.494-36.1l3.131-6.036c0.342,0.014,0.729-0.274,1.111-0.248c0.62,0.043,1.259-0.228,1.808-0.228
				c0.046,0,0.091,0,0.136,0c1.558,0,3.325,0.265,5.061,0.265c9.303,0,18.354-6.332,25.487-18.115
				c5.871-9.699,9.665-21.776,9.665-30.888C220.639,104.08,203.9,104.158,196.752,104.158z M208.881,153.039
				c-3.864,6.384-12.042,17.094-23.394,17.094c-1.754,0-3.53,0.026-5.096,0.049c-0.478,0.007-1.118-0.037-1.74-0.08
				c-0.565-0.039-1.098-0.07-1.571-0.079c-0.567-0.203-1.21,0.033-1.496,0.584l-3.466,6.687c-8.5,14.304-20.165,26.162-34.67,35.245
				c-0.394,0.246-0.954,0.406-1.428,0.407c-18.287,0.029-36.921,0.031-56.97,0.004c-0.459,0-0.981-0.127-1.396-0.338
				c-5.692-2.898-11.2-6.863-16.838-12.119c-11.503-10.724-20.295-24.145-26.13-39.89c-3.687-9.947-6.068-20.37-7.279-31.866
				c-1.038-9.848-1.133-20.093-0.293-31.318c0.062-0.826,0.132-0.945,1.069-0.945c52.709,0,105.419-0.001,158.128,0.001
				c0.992,0,1.002,0.101,1.085,0.884c0.16,1.53,0.308,2.647,0.45,3.729c0.169,1.28,0.328,2.49,0.495,4.278
				c0.046,0.497,0.388,0.895,0.833,1.044c0.218,0.181,0.495,0.289,0.799,0.273c1.88-0.04,5.11-0.077,6.778-0.077
				c7.493,0,21.44,0,21.44,16.735C218.192,131.903,214.451,143.839,208.881,153.039z"/>
			<path fill="#515E66" d="M196.752,113.945c-1.622,0-3.323,0.035-5.154,0.075l-1.536,0.03c-0.597,0.013-1.084,0.449-1.181,1.018
				c-0.157,0.193-0.259,0.436-0.273,0.702l-0.171,3.212c-0.577,14.629-3.472,29.15-8.373,41.996c-0.091,0.237-0.102,0.569-0.048,0.8
				c0.046,0.637,0.571,1.222,1.215,1.222c0.006,0,0.012,0,0.018,0c1.381,0,2.789-0.122,4.24-0.122
				c5.771,0,12.104-5.132,17.375-14.006c4.779-8.045,7.99-18.311,7.99-25.51C210.852,115.898,207.953,113.945,196.752,113.945z
				 M200.759,147.58c-4.818,8.112-10.385,12.766-15.271,12.766c-0.879,0-1.738,0.007-2.589,0.017
				c4.659-12.72,7.418-26.952,7.982-41.267l0.14-2.616l0.659-0.014c1.788-0.038,3.477-0.074,5.073-0.074
				c11.088,0,11.653,1.786,11.653,6.948C208.405,130.138,205.333,139.879,200.759,147.58z"/>
		</g>
		<path fill="#EFBF9C" d="M110.795,69.317c3.006-2.728,5.21-5.828,5.554-9.963c0.322-3.87-1.325-7.441-3.469-10.546
			c-2.693-3.9-6.255-7.055-7.911-11.626c-1.719-4.743,0.462-9.453,2.878-13.521c0.519-0.874,0.54-2.04,0.269-3
			c-0.137-0.483-0.801-1.636-1.325-0.752c-4.057,6.834-5.873,14.21-2.542,21.732c1.843,4.162,5.105,7.352,7.761,10.966
			c1.284,1.747,2.607,3.983,2.42,6.23c-0.205,2.469-2.548,4.736-4.245,6.276C109.156,66.047,109.914,70.117,110.795,69.317
			L110.795,69.317z"/>
		<path fill="#EFBF9C" d="M101.38,68.745c1.639-0.88,3.207-1.666,4.291-3.227c1.259-1.813,1.939-4.088,2.271-6.241
			c0.766-4.988-2.542-8.69-6.298-11.386c-1.027-0.737-1.525,3.424-0.404,4.229c2.373,1.703,5.629,4.006,4.493,7.278
			c-0.957,2.756-2.499,3.819-4.963,5.144C99.601,65.17,100.112,69.426,101.38,68.745L101.38,68.745z"/>
	</g>
	<g>
		<g>
			<path fill="#515E66" d="M171.159,215.049c-1.644,0-2.76-0.44-3.347-1.321c-0.587-0.881-0.88-1.928-0.88-3.142
				c0-1.252,0.176-2.544,0.528-3.875c0.352-1.331,0.666-2.447,0.939-3.348c0.626-2.192,1.418-4.53,2.378-7.018
				c0.959-2.485,2.016-4.933,3.171-7.34c1.154-2.408,2.299-4.57,3.435-6.489c0.9-1.526,1.869-2.672,2.906-3.435
				c1.037-0.764,1.948-1.146,2.731-1.146c0.626,0,1.125,0.226,1.498,0.676c0.372,0.45,0.558,1.125,0.558,2.025
				c0,0.627-0.108,1.37-0.323,2.231c-0.216,0.861-0.578,1.841-1.086,2.936c-1.371,3.054-3.005,6.107-4.903,9.161
				c-1.899,3.054-4.297,5.911-7.193,8.573c-0.157,0.51-0.363,1.107-0.617,1.791c-0.255,0.686-0.48,1.381-0.675,2.085
				c-0.235,1.057-0.353,1.958-0.353,2.701c0,1.214,0.244,2.124,0.734,2.73c0.489,0.607,1.086,0.91,1.791,0.91
				c0.626,0,1.292-0.225,1.997-0.675c0.704-0.45,1.37-1.105,1.997-1.968c0.939-1.37,1.791-2.769,2.555-4.198
				c0.763-1.429,1.34-2.534,1.732-3.318c0.235-0.43,0.489-0.646,0.764-0.646c0.195,0,0.293,0.117,0.293,0.353
				c0,0.196-0.059,0.411-0.176,0.646c-0.353,0.784-0.813,1.791-1.38,3.024c-0.568,1.233-1.273,2.467-2.114,3.699
				c-0.842,1.233-1.841,2.271-2.995,3.112C173.968,214.629,172.646,215.049,171.159,215.049z M172.04,201.66
				c1.409-1.448,2.779-3.121,4.111-5.021c1.331-1.898,2.573-3.876,3.729-5.931c1.154-2.056,2.124-4.003,2.907-5.844
				c0.273-0.587,0.5-1.232,0.675-1.938c0.176-0.704,0.264-1.292,0.264-1.762c0-0.548-0.138-0.821-0.411-0.821
				c-0.157,0-0.392,0.146-0.705,0.439c-0.313,0.294-0.725,0.793-1.233,1.498c-0.744,0.979-1.556,2.31-2.437,3.992
				c-0.881,1.685-1.771,3.485-2.671,5.403c-0.901,1.918-1.724,3.768-2.467,5.549C173.058,199.009,172.47,200.485,172.04,201.66z"/>
			<path fill="#515E66" d="M193.415,215.049c-0.431,0.038-0.92-0.059-1.468-0.294c-0.549-0.234-1.027-0.665-1.438-1.292
				c-0.411-0.626-0.617-1.506-0.617-2.643c0-0.939,0.176-2.074,0.528-3.405c-0.469,0.744-1.077,1.654-1.82,2.73
				c-0.745,1.077-1.547,2.026-2.408,2.849c-0.744,0.704-1.449,1.213-2.114,1.526c-0.667,0.313-1.273,0.47-1.821,0.47
				c-1.018,0-1.84-0.46-2.466-1.38c-0.627-0.92-0.939-2.123-0.939-3.611c0-1.565,0.391-3.348,1.174-5.344
				c0.783-1.997,2.056-4.071,3.817-6.225c1.135-1.37,2.515-2.476,4.141-3.318c1.624-0.841,3.219-1.262,4.785-1.262
				c0.9,0,1.762,0.146,2.583,0.44c0.823,0.293,1.546,0.773,2.173,1.438c0.273,0.274,0.411,0.587,0.411,0.939
				c0,0.235-0.099,0.432-0.293,0.587c-0.197,0.157-0.451,0.196-0.764,0.118c-0.431-1.37-1.351-2.056-2.76-2.056
				c-0.666,0-1.429,0.216-2.29,0.646c-1.332,0.705-2.711,1.86-4.14,3.465c-1.43,1.606-2.672,3.27-3.729,4.991
				c-0.157,0.235-0.402,0.686-0.734,1.351c-0.333,0.667-0.656,1.409-0.969,2.231s-0.529,1.625-0.646,2.408
				c-0.04,0.234-0.059,0.401-0.059,0.499s0,0.245,0,0.44c0,1.292,0.489,1.938,1.468,1.938c1.174,0,2.505-0.86,3.993-2.584
				c1.017-1.252,1.938-2.563,2.76-3.934c0.822-1.37,1.663-2.839,2.525-4.404c0.587-1.058,1.135-1.938,1.644-2.643
				c0.508-0.705,1.233-1.058,2.172-1.058c0.43,0,0.861,0.06,1.292,0.177c0.43,0.117,0.88,0.138,1.351,0.059
				c-0.313,0.313-0.734,0.9-1.262,1.762c-0.529,0.861-1.087,1.841-1.674,2.936c-0.587,1.097-1.115,2.213-1.585,3.348
				c-0.469,1.136-0.803,2.114-0.998,2.936c-0.04,0.235-0.089,0.568-0.147,0.999c-0.059,0.431-0.088,0.743-0.088,0.939
				c0,1.097,0.313,1.644,0.939,1.644c0.626,0,1.301-0.371,2.026-1.115c0.723-0.743,1.438-1.664,2.143-2.76s1.351-2.202,1.938-3.318
				c0.587-1.115,1.057-2.025,1.409-2.73c0.156-0.391,0.391-0.587,0.705-0.587c0.196,0,0.294,0.138,0.294,0.411
				c0,0.117-0.059,0.333-0.177,0.646c-0.469,0.979-1.037,2.085-1.702,3.318c-0.666,1.232-1.391,2.428-2.173,3.582
				c-0.784,1.155-1.595,2.113-2.436,2.877C195.126,214.55,194.275,214.97,193.415,215.049z"/>
			<path fill="#515E66" d="M204.278,214.873c-1.096,0-2.076-0.382-2.936-1.146c-0.861-0.764-1.292-1.968-1.292-3.611
				c0-1.292,0.245-2.887,0.734-4.786c0.489-1.897,1.096-3.875,1.821-5.931c0.724-2.056,1.438-3.925,2.143-5.608h-3.112
				c-0.274,0-0.411-0.195-0.411-0.587c0-0.195,0.049-0.371,0.147-0.528c0.096-0.156,0.244-0.234,0.439-0.234h3.524
				c0.665-1.487,1.37-2.937,2.114-4.346c0.743-1.409,1.468-2.74,2.172-3.993c0.9-1.565,1.859-2.74,2.878-3.523
				c1.017-0.783,1.898-1.175,2.642-1.175c0.588,0,1.076,0.226,1.468,0.676c0.391,0.45,0.587,1.125,0.587,2.025
				c0,0.549-0.117,1.302-0.353,2.261c-0.235,0.96-0.607,1.968-1.115,3.024c-0.274,0.549-0.657,1.331-1.145,2.349
				c-0.49,1.019-0.969,1.919-1.439,2.702h2.819c0.273,0,0.411,0.196,0.411,0.587c0,0.156-0.04,0.322-0.118,0.499
				c-0.079,0.176-0.197,0.264-0.353,0.264h-3.465c-0.979,1.684-2.095,3.328-3.347,4.934c-1.253,1.605-2.74,3.21-4.462,4.814
				c-0.118,0.353-0.265,0.861-0.441,1.527c-0.177,0.666-0.333,1.341-0.47,2.025c-0.138,0.686-0.303,1.498-0.499,2.438
				c-0.117,0.509-0.176,0.979-0.176,1.409c0,0.821,0.195,1.419,0.587,1.791c0.391,0.372,0.841,0.558,1.351,0.558
				c0.313,0,0.626-0.049,0.939-0.146s0.665-0.283,1.057-0.558c1.37-0.979,2.574-2.31,3.612-3.993
				c1.037-1.683,1.947-3.309,2.73-4.874c0.234-0.47,0.469-0.705,0.705-0.705c0.156,0,0.235,0.117,0.235,0.353
				c0,0.117-0.059,0.333-0.177,0.646c-0.861,1.802-1.584,3.25-2.172,4.346c-0.587,1.097-1.155,2.007-1.703,2.73
				c-0.549,0.725-1.195,1.438-1.938,2.144c-0.548,0.549-1.174,0.96-1.879,1.233C205.688,214.736,204.982,214.873,204.278,214.873z
				 M205.1,201.66c1.135-1.175,2.202-2.427,3.201-3.758c0.998-1.331,1.928-2.701,2.789-4.111h-2.76
				c-0.626,1.449-1.214,2.858-1.762,4.229C206.02,199.391,205.53,200.604,205.1,201.66z M208.917,192.441h2.995
				c0.548-1.018,1.067-2.017,1.556-2.995s0.93-1.957,1.322-2.937c0.273-0.625,0.508-1.33,0.704-2.114
				c0.195-0.782,0.293-1.389,0.293-1.82c0-0.587-0.138-0.881-0.411-0.881c-0.196,0-0.48,0.167-0.852,0.499
				c-0.373,0.333-0.832,0.892-1.38,1.674c-0.705,0.979-1.4,2.242-2.084,3.788C210.375,189.202,209.66,190.797,208.917,192.441z"/>
			<path fill="#515E66" d="M216.08,214.873c-1.096,0-2.075-0.382-2.936-1.146s-1.291-1.968-1.291-3.611
				c0-1.292,0.244-2.887,0.734-4.786c0.488-1.897,1.095-3.875,1.82-5.931s1.439-3.925,2.144-5.608h-3.112
				c-0.274,0-0.411-0.195-0.411-0.587c0-0.195,0.048-0.371,0.146-0.528c0.097-0.156,0.245-0.234,0.44-0.234h3.523
				c0.665-1.487,1.371-2.937,2.114-4.346s1.468-2.74,2.172-3.993c0.9-1.565,1.859-2.74,2.878-3.523
				c1.018-0.783,1.898-1.175,2.643-1.175c0.587,0,1.076,0.226,1.468,0.676c0.391,0.45,0.586,1.125,0.586,2.025
				c0,0.549-0.117,1.302-0.352,2.261c-0.235,0.96-0.608,1.968-1.116,3.024c-0.274,0.549-0.656,1.331-1.145,2.349
				c-0.489,1.019-0.969,1.919-1.438,2.702h2.818c0.273,0,0.411,0.196,0.411,0.587c0,0.156-0.039,0.322-0.118,0.499
				c-0.078,0.176-0.196,0.264-0.352,0.264h-3.465c-0.979,1.684-2.095,3.328-3.347,4.934c-1.254,1.605-2.741,3.21-4.463,4.814
				c-0.118,0.353-0.264,0.861-0.441,1.527c-0.176,0.666-0.333,1.341-0.469,2.025c-0.138,0.686-0.304,1.498-0.499,2.438
				c-0.117,0.509-0.177,0.979-0.177,1.409c0,0.821,0.196,1.419,0.588,1.791c0.391,0.372,0.841,0.558,1.351,0.558
				c0.313,0,0.625-0.049,0.939-0.146c0.313-0.098,0.665-0.283,1.057-0.558c1.37-0.979,2.573-2.31,3.611-3.993
				c1.037-1.683,1.947-3.309,2.73-4.874c0.235-0.47,0.47-0.705,0.705-0.705c0.157,0,0.235,0.117,0.235,0.353
				c0,0.117-0.058,0.333-0.176,0.646c-0.862,1.802-1.585,3.25-2.172,4.346c-0.588,1.097-1.156,2.007-1.703,2.73
				c-0.549,0.725-1.195,1.438-1.938,2.144c-0.548,0.549-1.173,0.96-1.879,1.233C217.489,214.736,216.785,214.873,216.08,214.873z
				 M216.903,201.66c1.134-1.175,2.202-2.427,3.2-3.758c0.999-1.331,1.928-2.701,2.789-4.111h-2.759
				c-0.627,1.449-1.214,2.858-1.762,4.229C217.822,199.391,217.333,200.604,216.903,201.66z M220.719,192.441h2.996
				c0.548-1.018,1.065-2.017,1.556-2.995c0.488-0.979,0.929-1.957,1.321-2.937c0.273-0.625,0.508-1.33,0.704-2.114
				c0.196-0.782,0.294-1.389,0.294-1.82c0-0.587-0.138-0.881-0.411-0.881c-0.197,0-0.48,0.167-0.852,0.499
				c-0.373,0.333-0.832,0.892-1.38,1.674c-0.705,0.979-1.4,2.242-2.084,3.788C222.177,189.202,221.462,190.797,220.719,192.441z"/>
			<path fill="#515E66" d="M229.175,215.107c-1.449,0-2.751-0.47-3.905-1.409c-1.155-0.939-1.732-2.368-1.732-4.287
				c0-1.761,0.43-3.649,1.292-5.666c0.86-2.017,1.957-3.788,3.288-5.314c1.135-1.33,2.407-2.427,3.817-3.289
				c1.409-0.86,2.739-1.291,3.993-1.291c0.86,0,1.604,0.234,2.23,0.704c0.666,0.51,0.999,1.233,0.999,2.173
				c0,0.979-0.373,2.056-1.116,3.229c-0.744,1.175-1.801,2.271-3.171,3.289c-0.588,0.431-1.332,0.842-2.232,1.232
				c-0.901,0.393-1.801,0.715-2.701,0.97c-0.901,0.255-1.644,0.381-2.232,0.381c-0.196,0.471-0.381,1.097-0.558,1.88
				c-0.176,0.783-0.264,1.585-0.264,2.407c0,0.979,0.195,1.86,0.587,2.643c0.391,0.783,1.116,1.175,2.173,1.175
				c1.291,0,2.466-0.372,3.523-1.116c1.057-0.743,1.997-1.674,2.818-2.789c0.822-1.116,1.517-2.241,2.084-3.377
				c0.568-1.135,1.027-2.094,1.38-2.877c0.235-0.548,0.547-0.822,0.939-0.822c0.196,0,0.293,0.099,0.293,0.294
				c0,0.156-0.059,0.352-0.176,0.587c-0.548,1.174-1.135,2.418-1.761,3.729c-0.627,1.313-1.371,2.546-2.232,3.7
				c-0.861,1.154-1.889,2.084-3.082,2.789C232.238,214.755,230.818,215.107,229.175,215.107z M228.118,204.772
				c0.547,0,1.468-0.205,2.76-0.617c1.292-0.41,2.466-1.065,3.523-1.967c1.018-0.9,1.8-1.888,2.349-2.966
				c0.548-1.076,0.822-1.985,0.822-2.729c0-0.861-0.313-1.292-0.939-1.292c-0.47,0-1.115,0.313-1.938,0.939
				c-0.822,0.627-1.84,1.684-3.053,3.171c-0.745,0.939-1.449,1.958-2.114,3.054C228.861,203.461,228.391,204.264,228.118,204.772z"
				/>
		</g>
	</g>
	<g>
		<path fill-rule="evenodd" clip-rule="evenodd" fill="#AF6F31" d="M266,214.021c0,0.541-0.438,0.979-0.979,0.979h-20.043
			c-0.541,0-0.979-0.438-0.979-0.979v-11.043c0-0.541,0.438-0.979,0.979-0.979h20.043c0.541,0,0.979,0.438,0.979,0.979V214.021z"/>
		<g>
			<g>
				<path fill="#FFFFFF" d="M254.061,209.937c0,0.438-0.054,0.836-0.164,1.194c-0.109,0.359-0.275,0.667-0.495,0.923
					c-0.221,0.258-0.498,0.456-0.832,0.598c-0.333,0.143-0.727,0.213-1.179,0.213c-0.204,0-0.406-0.01-0.605-0.032
					c-0.199-0.021-0.406-0.058-0.622-0.107l0.097-1.061c0.007-0.094,0.044-0.169,0.11-0.227s0.159-0.086,0.277-0.086
					c0.061,0,0.136,0.011,0.226,0.029c0.09,0.021,0.198,0.03,0.323,0.03c0.176,0,0.329-0.024,0.46-0.073
					c0.131-0.048,0.239-0.129,0.325-0.241c0.086-0.114,0.151-0.261,0.194-0.444c0.043-0.183,0.064-0.409,0.064-0.679v-5.038h1.819
					V209.937z"/>
				<path fill="#FFFFFF" d="M259.724,206.529c-0.054,0.086-0.11,0.15-0.169,0.193c-0.06,0.043-0.135,0.064-0.229,0.064
					c-0.083,0-0.172-0.026-0.267-0.078c-0.095-0.052-0.203-0.11-0.323-0.175s-0.257-0.123-0.412-0.175
					c-0.154-0.053-0.33-0.078-0.527-0.078c-0.341,0-0.595,0.072-0.762,0.218c-0.167,0.146-0.25,0.343-0.25,0.59
					c0,0.157,0.05,0.289,0.15,0.393c0.101,0.104,0.232,0.194,0.396,0.269c0.163,0.076,0.35,0.146,0.56,0.208
					c0.209,0.063,0.424,0.133,0.643,0.21s0.433,0.168,0.643,0.271c0.21,0.104,0.396,0.237,0.56,0.398
					c0.164,0.162,0.295,0.358,0.396,0.59c0.1,0.231,0.151,0.511,0.151,0.837c0,0.362-0.063,0.702-0.189,1.018
					c-0.125,0.315-0.308,0.591-0.546,0.826c-0.239,0.235-0.533,0.42-0.883,0.555c-0.35,0.134-0.747,0.201-1.192,0.201
					c-0.244,0-0.493-0.024-0.745-0.075c-0.253-0.051-0.498-0.121-0.735-0.212c-0.237-0.092-0.459-0.201-0.667-0.326
					c-0.208-0.126-0.39-0.266-0.543-0.42l0.538-0.851c0.04-0.064,0.095-0.116,0.167-0.156c0.072-0.039,0.149-0.06,0.231-0.06
					c0.108,0,0.216,0.034,0.326,0.103s0.233,0.145,0.371,0.227c0.138,0.082,0.297,0.157,0.477,0.226
					c0.18,0.068,0.392,0.103,0.635,0.103c0.33,0,0.587-0.073,0.77-0.219c0.183-0.145,0.274-0.375,0.274-0.69
					c0-0.184-0.05-0.333-0.151-0.447c-0.1-0.115-0.232-0.21-0.396-0.285c-0.164-0.075-0.349-0.143-0.557-0.2
					c-0.208-0.057-0.422-0.12-0.641-0.19s-0.433-0.156-0.64-0.259c-0.208-0.102-0.395-0.236-0.558-0.402
					c-0.163-0.168-0.295-0.376-0.396-0.626c-0.1-0.249-0.151-0.557-0.151-0.923c0-0.293,0.059-0.581,0.178-0.861
					c0.119-0.279,0.292-0.528,0.522-0.747c0.229-0.219,0.511-0.395,0.845-0.525c0.334-0.132,0.716-0.196,1.146-0.196
					c0.24,0,0.475,0.02,0.703,0.057c0.228,0.037,0.444,0.094,0.649,0.167s0.396,0.161,0.573,0.264
					c0.178,0.103,0.336,0.218,0.477,0.347L259.724,206.529z"/>
			</g>
		</g>
	</g>
</g>
</svg>
